# xmcd
#
# Track frame offsets:
#  150
#  10281
#  20733
#  35392
#  49251
#  65702
#  76600
#  89292
#  100704
#  114739
#  127687
#  137003
#  148654
#  159409
#  173396
#  187815
#  199531
#  212287
#  221986
#  236261
#
# Disc length: 3362 seconds
#
# Revision: 0
# Processed by: cddbd v1.5.1PL2 Copyright (c) Steve Scherf et al.
# Submitted via: Collectorz.com_Music_Collector 6.11
#
DISCID=010d2014
DTITLE=Charley Pride - The Essential Charley Pride
DYEAR=1997
DGENRE=Country
TTITLE0=Just Between You And Me
TTITLE1=Does My Ring Hurt Your Finger
TTITLE2=Please Help Me, I'm Falling
TTITLE3=All I Have To Offer You Is Me
TTITLE4=Kaw-Liga
TTITLE5=[is Anybody Going To] San Antoine
TTITLE6=I'd Rather Love You
TTITLE7=Wonder Could I Live There Anymore
TTITLE8=I Can't Believe That You've Stopped Loving Me
TTITLE9=She's Too Good To Be True
TTITLE10=Kiss An Angel Good Morning
TTITLE11=It's Gonna Take A Little Bit Longer
TTITLE12=I'm Just Me
TTITLE13=A Shoulder To Cry On
TTITLE14=Amazing Love
TTITLE15=My Eye's Can Only See As Far As You
TTITLE16=I'll Be Leaving Alone
TTITLE17=Someu Honey
TTITLE18=Burgers And Fries
TTITLE19=You're My Jamaica
EXTD=
EXTT0=
EXTT1=
EXTT2=
EXTT3=
EXTT4=
EXTT5=
EXTT6=
EXTT7=
EXTT8=
EXTT9=
EXTT10=
EXTT11=
EXTT12=
EXTT13=
EXTT14=
EXTT15=
EXTT16=
EXTT17=
EXTT18=
EXTT19=
PLAYORDER=
